{"glyphs":{":":{"x_min":0,"x_max":195,"ha":195,"o":"m 65 107 l 188 107 l 156 -10 l 34 -10 z m 144 400 l 266 400 l 234 283 l 112 283 z"},"$":{"x_min":0,"x_max":732,"ha":732,"o":"m 503 283 l 469 156 l 555 156 q 579 156 602 175 q 625 193 633 220 q 635 229 635 237 q 635 253 626 265 q 613 283 588 283 z m 446 527 l 361 527 q 336 527 313 509 q 290 491 283 464 q 281 455 281 446 q 281 431 290 419 q 303 400 327 400 l 413 400 z m 381 283 l 295 283 q 219 283 180 336 q 154 372 154 416 q 154 438 161 464 q 181 538 248 591 q 316 645 393 645 l 478 645 l 491 693 l 613 693 l 600 645 l 869 645 l 837 527 l 568 527 l 535 400 l 620 400 q 697 400 736 347 q 761 312 761 267 q 761 245 755 220 q 735 146 667 92 q 600 39 523 39 l 438 39 l 425 -10 l 303 -10 l 315 39 l 47 39 l 79 156 l 347 156 z"},"?":{"x_min":0,"x_max":732,"ha":732,"o":"m 442 283 q 417 283 394 265 q 371 247 364 220 l 342 137 l 220 137 l 242 220 q 262 294 329 347 q 397 400 474 400 l 620 400 q 645 400 668 419 q 691 437 698 464 l 711 513 q 713 522 713 531 q 713 546 705 558 q 691 576 667 576 l 191 576 l 222 693 l 698 693 q 775 693 814 640 q 840 605 840 561 q 840 538 833 513 l 820 464 q 800 390 733 336 q 665 283 588 283 z m 212 107 l 334 107 l 303 -10 l 181 -10 z"},"<":{"x_min":0,"x_max":635,"ha":635,"o":"m 107 262 l 150 422 l 759 600 l 727 481 l 250 342 l 652 202 l 621 83 z"},"'":{"x_min":0,"x_max":195,"ha":195,"o":"m 240 576 l 191 576 l 222 693 l 344 693 l 309 562 q 303 538 281 521 q 258 503 232 503 l 205 503 l 183 571 l 227 571 q 239 571 240 576 z"},"=":{"x_min":0,"x_max":635,"ha":635,"o":"m 170 498 l 731 498 l 700 381 l 139 381 z m 118 303 l 679 303 l 648 186 l 86 186 z"},"a":{"x_min":0,"x_max":635,"ha":635,"o":"m 205 171 q 202 162 202 153 q 202 138 211 126 q 224 107 249 107 l 505 107 l 584 405 l 328 405 q 304 405 281 387 q 257 369 250 342 z m 596 -10 l 217 -10 q 141 -10 102 43 q 76 79 76 123 q 76 146 83 171 l 128 342 q 148 416 216 469 q 283 522 360 522 l 738 522 z"},"L":{"x_min":0,"x_max":684,"ha":684,"o":"m 676 107 l 645 -10 l 217 -10 q 141 -10 102 43 q 76 79 76 123 q 76 146 83 171 l 222 693 l 344 693 l 205 171 q 202 162 202 153 q 202 138 211 126 q 224 107 249 107 z"},"3":{"x_min":0,"x_max":732,"ha":732,"o":"m 259 283 l 291 400 l 620 400 q 645 400 668 419 q 691 437 698 464 l 711 513 q 713 522 713 531 q 713 546 705 558 q 691 576 667 576 l 191 576 l 222 693 l 698 693 q 775 693 814 640 q 840 605 840 561 q 840 538 833 513 l 820 464 q 800 390 740 341 q 762 311 762 270 q 762 247 755 220 l 742 171 q 722 97 654 43 q 587 -10 510 -10 l 34 -10 l 65 107 l 542 107 q 566 107 589 126 q 612 144 620 171 l 633 220 q 635 229 635 237 q 635 253 626 265 q 613 283 588 283 z"},";":{"x_min":0,"x_max":195,"ha":195,"o":"m 144 400 l 266 400 l 234 283 l 112 283 z m 83 -10 l 34 -10 l 65 107 l 188 107 l 152 -24 q 146 -48 124 -65 q 101 -83 75 -83 l 47 -83 l 26 -15 l 69 -15 q 82 -15 83 -10 z"},"J":{"x_min":0,"x_max":684,"ha":684,"o":"m 493 107 q 517 107 540 126 q 563 144 571 171 l 710 693 l 833 693 l 693 171 q 673 97 605 43 q 538 -10 461 -10 l 34 -10 l 65 107 z"},"V":{"x_min":0,"x_max":732,"ha":732,"o":"m 282 -10 l 193 693 l 316 693 l 390 107 l 400 107 l 787 693 l 910 693 l 446 -10 z"},"\"":{"x_min":0,"x_max":342,"ha":342,"o":"m 240 576 l 191 576 l 222 693 l 344 693 l 309 562 q 303 538 281 521 q 258 503 232 503 l 205 503 l 183 571 l 227 571 q 239 571 240 576 z m 386 576 l 337 576 l 369 693 l 491 693 l 456 562 q 449 538 427 521 q 405 503 379 503 l 351 503 l 330 571 l 373 571 q 385 571 386 576 z"},"7":{"x_min":0,"x_max":732,"ha":732,"o":"m 837 693 l 348 -10 l 212 -10 l 620 576 l 191 576 l 222 693 z"},"S":{"x_min":0,"x_max":781,"ha":781,"o":"m 295 283 q 219 283 180 336 q 154 372 154 416 q 154 438 161 464 l 174 513 q 194 587 261 640 q 329 693 405 693 l 930 693 l 899 576 l 374 576 q 350 576 326 558 q 303 540 296 513 l 283 464 q 281 455 281 446 q 281 431 290 419 q 303 400 327 400 l 669 400 q 746 400 785 347 q 810 312 810 267 q 810 245 804 220 l 791 171 q 771 97 703 43 q 636 -10 559 -10 l 34 -10 l 65 107 l 590 107 q 615 107 638 126 q 661 144 668 171 l 682 220 q 684 229 684 237 q 684 253 675 265 q 662 283 637 283 z"},"}":{"x_min":0,"x_max":537,"ha":537,"o":"m 370 341 q 349 372 349 412 q 349 436 356 464 l 382 562 q 385 571 385 580 q 385 595 376 607 q 363 625 338 625 l 204 625 l 235 742 l 370 742 q 446 742 485 689 q 511 654 511 609 q 511 587 504 562 l 479 464 q 476 455 476 446 q 476 431 485 419 q 498 400 522 400 l 608 400 l 576 283 l 491 283 q 466 283 443 265 q 420 247 413 220 l 387 122 q 367 48 299 -5 q 232 -59 155 -59 l 21 -59 l 52 59 l 187 59 q 211 59 234 77 q 257 95 265 122 l 291 220 q 311 294 370 341 z"},"Z":{"x_min":0,"x_max":781,"ha":781,"o":"m 672 576 l 191 576 l 222 693 l 941 693 l 292 107 l 773 107 l 742 -10 l 23 -10 z"},"x":{"x_min":0,"x_max":586,"ha":586,"o":"m 286 256 l 142 522 l 293 522 l 387 350 l 573 522 l 724 522 l 438 256 l 582 -10 l 431 -10 l 336 163 l 150 -10 l 0 -10 z"},")":{"x_min":0,"x_max":488,"ha":488,"o":"m 284 59 q 309 59 332 77 q 355 95 362 122 l 480 562 q 482 571 482 580 q 482 595 474 607 q 460 625 436 625 l 204 625 l 235 742 l 467 742 q 544 742 583 689 q 609 654 609 609 q 609 587 602 562 l 484 122 q 464 48 397 -5 q 330 -59 253 -59 l 21 -59 l 52 59 z"},"&":{"x_min":0,"x_max":732,"ha":732,"o":"m 395 107 q 419 107 443 126 q 466 144 473 171 l 499 269 q 501 278 501 287 q 501 302 493 314 q 479 332 455 332 l 309 332 q 284 332 261 314 q 238 295 230 269 l 205 171 q 202 162 202 153 q 202 138 211 126 q 224 107 249 107 z m 487 449 q 511 449 534 468 q 558 486 564 513 q 567 522 567 531 q 567 546 559 558 q 545 576 521 576 l 374 576 q 350 576 326 558 q 303 540 296 513 q 293 503 293 496 q 293 479 303 468 q 316 449 340 449 z m 498 36 q 440 -10 364 -10 l 217 -10 q 141 -10 102 43 q 76 79 76 123 q 76 146 83 171 l 108 269 q 128 343 189 391 q 167 421 167 462 q 167 486 174 513 q 194 587 261 640 q 329 693 405 693 l 552 693 q 628 693 667 640 q 693 605 693 561 q 693 538 687 513 q 667 458 624 415 q 664 449 731 449 l 817 449 l 785 332 l 699 332 q 675 332 652 314 q 628 295 621 269 l 595 171 q 593 162 593 153 q 593 138 602 126 q 615 107 639 107 l 725 107 l 694 -10 l 608 -10 q 531 -10 498 36 z"},"_":{"x_min":0,"x_max":684,"ha":684,"o":"m 637 -39 l 605 -156 l -5 -156 l 26 -39 z"},"v":{"x_min":0,"x_max":586,"ha":586,"o":"m 326 107 l 595 522 l 718 522 l 373 -10 l 208 -10 l 148 522 l 271 522 l 318 107 z"},"O":{"x_min":0,"x_max":781,"ha":781,"o":"m 205 171 q 202 162 202 153 q 202 138 211 126 q 224 107 249 107 l 590 107 q 615 107 638 126 q 661 144 668 171 l 760 513 q 762 522 762 531 q 762 546 754 558 q 740 576 716 576 l 374 576 q 350 576 326 558 q 303 540 296 513 z m 791 171 q 771 97 703 43 q 636 -10 559 -10 l 217 -10 q 141 -10 102 43 q 76 79 76 123 q 76 146 83 171 l 174 513 q 194 587 261 640 q 329 693 405 693 l 747 693 q 824 693 863 640 q 889 605 889 561 q 889 538 882 513 z"},"(":{"x_min":0,"x_max":488,"ha":488,"o":"m 467 59 l 436 -59 l 204 -59 q 127 -59 88 -5 q 62 30 62 74 q 62 97 69 122 l 187 562 q 207 636 274 689 q 342 742 418 742 l 650 742 l 619 625 l 387 625 q 363 625 340 607 q 316 588 309 562 l 191 122 q 189 113 189 104 q 189 89 198 77 q 211 59 235 59 z"},"C":{"x_min":0,"x_max":781,"ha":781,"o":"m 773 107 l 742 -10 l 217 -10 q 141 -10 102 43 q 76 79 76 123 q 76 146 83 171 l 174 513 q 194 587 261 640 q 329 693 405 693 l 930 693 l 899 576 l 374 576 q 350 576 326 558 q 303 540 296 513 l 205 171 q 202 162 202 153 q 202 138 211 126 q 224 107 249 107 z"},"W":{"x_min":0,"x_max":1001,"ha":1001,"o":"m 183 -10 l 195 693 l 317 693 l 308 138 l 615 693 l 757 693 l 748 138 l 1055 693 l 1177 693 l 789 -10 l 623 -10 l 631 500 l 349 -10 z"},"A":{"x_min":0,"x_max":781,"ha":781,"o":"m 540 576 l 359 303 l 584 303 l 550 576 z m 658 693 l 747 -10 l 624 -10 l 599 186 l 282 186 l 153 -10 l 30 -10 l 494 693 z"},"f":{"x_min":0,"x_max":439,"ha":439,"o":"m 267 405 l 156 -10 l 34 -10 l 174 513 q 194 587 261 640 q 329 693 405 693 l 589 694 l 557 577 l 374 576 q 350 576 326 558 q 303 540 299 522 l 543 522 l 511 405 z"},"Q":{"x_min":0,"x_max":781,"ha":781,"o":"m 327 -10 l 217 -10 q 141 -10 102 43 q 76 79 76 123 q 76 146 83 171 l 174 513 q 194 587 261 640 q 329 693 405 693 l 747 693 q 824 693 863 640 q 889 605 889 561 q 889 538 882 513 l 791 171 q 771 97 703 43 q 636 -10 559 -10 l 449 -10 l 423 -107 l 301 -107 z m 358 107 l 385 205 l 507 205 l 480 107 l 590 107 q 615 107 638 126 q 661 144 668 171 l 760 513 q 762 522 762 531 q 762 546 754 558 q 740 576 716 576 l 374 576 q 350 576 326 558 q 303 540 296 513 l 205 171 q 202 162 202 153 q 202 138 211 126 q 224 107 249 107 z"},"w":{"x_min":0,"x_max":732,"ha":732,"o":"m 134 -10 l 150 522 l 272 522 l 261 155 l 447 522 l 565 522 l 554 155 l 740 522 l 863 522 l 594 -10 l 427 -10 l 435 255 l 301 -10 z"},"-":{"x_min":0,"x_max":635,"ha":635,"o":"m 144 400 l 706 400 l 674 283 l 112 283 z"},"E":{"x_min":0,"x_max":781,"ha":781,"o":"m 234 283 l 205 171 q 202 162 202 153 q 202 138 211 126 q 224 107 249 107 l 773 107 l 742 -10 l 217 -10 q 141 -10 102 43 q 76 79 76 123 q 76 146 83 171 l 174 513 q 194 587 261 640 q 329 693 405 693 l 930 693 l 899 576 l 374 576 q 350 576 326 558 q 303 540 296 513 l 266 400 l 754 400 l 723 283 z"},"s":{"x_min":0,"x_max":635,"ha":635,"o":"m 311 522 l 689 522 l 658 405 l 279 405 q 275 405 270 401 q 265 397 263 391 l 247 330 q 246 327 246 325 q 246 321 248 319 q 251 315 255 315 l 548 315 q 605 315 633 276 q 652 250 652 218 q 652 202 647 183 l 631 123 q 616 68 567 29 q 518 -10 461 -10 l 34 -10 l 65 107 l 493 107 q 497 107 502 111 q 507 115 509 122 l 525 183 q 526 186 526 188 q 526 191 524 194 q 521 198 517 198 l 224 198 q 167 198 139 237 q 120 262 120 295 q 120 312 125 330 l 141 391 q 156 445 205 484 q 254 522 311 522 z"},">":{"x_min":0,"x_max":635,"ha":635,"o":"m 59 83 l 91 202 l 568 342 l 166 481 l 197 600 l 711 422 l 668 262 z"},"l":{"x_min":0,"x_max":195,"ha":195,"o":"m 222 693 l 344 693 l 156 -10 l 34 -10 z"},"8":{"x_min":0,"x_max":732,"ha":732,"o":"m 542 107 q 566 107 589 126 q 612 144 620 171 l 633 220 q 635 229 635 237 q 635 253 626 265 q 613 283 588 283 l 295 283 q 271 283 248 265 q 225 247 218 220 l 205 171 q 202 162 202 153 q 202 138 211 126 q 224 107 249 107 z m 620 400 q 645 400 668 419 q 691 437 698 464 l 711 513 q 713 522 713 531 q 713 546 705 558 q 691 576 667 576 l 374 576 q 350 576 326 558 q 303 540 296 513 l 283 464 q 281 455 281 446 q 281 431 290 419 q 303 400 327 400 z m 176 342 q 154 375 154 416 q 154 438 161 464 l 174 513 q 194 587 261 640 q 329 693 405 693 l 698 693 q 775 693 814 640 q 840 605 840 561 q 840 538 833 513 l 820 464 q 801 394 740 342 q 761 308 761 267 q 761 245 755 220 l 742 171 q 722 97 654 43 q 587 -10 510 -10 l 217 -10 q 141 -10 102 43 q 76 79 76 123 q 76 146 83 171 l 96 220 q 114 290 176 342 z"},"\\":{"x_min":0,"x_max":464,"ha":464,"o":"m 341 693 l 429 -10 l 306 -10 l 218 693 z"},"e":{"x_min":0,"x_max":635,"ha":635,"o":"m 208 186 l 205 171 q 202 162 202 153 q 202 138 211 126 q 224 107 249 107 l 578 107 l 547 -10 l 217 -10 q 141 -10 102 43 q 76 79 76 123 q 76 146 83 171 l 128 342 q 148 416 216 469 q 283 522 360 522 l 555 522 q 632 522 671 469 q 696 434 696 389 q 696 367 690 342 l 648 186 z m 557 303 l 568 342 q 570 351 570 359 q 570 375 562 387 q 548 405 523 405 l 328 405 q 304 405 281 387 q 257 369 250 342 l 240 303 z"},"b":{"x_min":0,"x_max":635,"ha":635,"o":"m 568 342 q 570 351 570 359 q 570 375 562 387 q 548 405 523 405 l 267 405 l 188 107 l 444 107 q 468 107 491 126 q 515 144 522 171 z m 222 693 l 344 693 l 299 522 l 555 522 q 632 522 671 469 q 696 434 696 389 q 696 367 690 342 l 644 171 q 624 97 557 43 q 489 -10 413 -10 l 34 -10 z"},"%":{"x_min":0,"x_max":781,"ha":781,"o":"m 290 488 q 287 479 287 470 q 287 455 296 443 q 309 425 333 425 l 382 425 q 407 425 430 443 q 453 461 460 488 l 467 513 q 469 522 469 531 q 469 546 461 558 q 447 576 423 576 l 374 576 q 350 576 326 558 q 303 540 296 513 z m 498 171 q 495 162 495 153 q 495 138 504 126 q 517 107 542 107 l 590 107 q 615 107 638 126 q 661 144 668 171 l 675 195 q 677 205 677 213 q 677 229 669 241 q 655 259 631 259 l 582 259 q 558 259 534 240 q 511 222 504 195 z m 400 311 q 392 308 351 308 l 302 308 q 226 308 187 361 q 161 396 161 440 q 161 463 167 488 l 174 513 q 194 587 261 640 q 329 693 405 693 l 454 693 q 531 693 570 640 q 593 609 593 603 l 653 693 l 776 693 l 564 373 q 573 376 613 376 l 662 376 q 739 376 778 323 q 804 288 804 243 q 804 221 797 195 l 791 171 q 771 97 703 43 q 636 -10 559 -10 l 510 -10 q 434 -10 395 44 q 372 75 371 81 l 312 -10 l 188 -10 z"},"m":{"x_min":0,"x_max":928,"ha":928,"o":"m 495 342 q 497 351 497 359 q 497 375 488 387 q 475 405 450 405 l 328 405 q 304 405 281 387 q 257 369 250 342 l 156 -10 l 34 -10 l 128 342 q 148 416 216 469 q 283 522 360 522 l 482 522 q 559 522 592 477 q 649 522 726 522 l 848 522 q 925 522 964 469 q 989 434 989 389 q 989 367 983 342 l 889 -10 l 767 -10 l 861 342 q 863 351 863 359 q 863 375 854 387 q 841 405 816 405 l 694 405 q 670 405 647 387 q 624 369 617 342 l 522 -10 l 400 -10 z"},"#":{"x_min":0,"x_max":635,"ha":635,"o":"m 268 498 l 307 645 l 429 645 l 390 498 l 512 498 l 551 645 l 673 645 l 634 498 l 731 498 l 700 381 l 603 381 l 582 303 l 679 303 l 648 186 l 550 186 l 511 39 l 389 39 l 428 186 l 306 186 l 267 39 l 145 39 l 184 186 l 86 186 l 118 303 l 215 303 l 236 381 l 139 381 l 170 498 z m 358 381 l 337 303 l 459 303 l 480 381 z"},",":{"x_min":0,"x_max":195,"ha":195,"o":"m 83 -10 l 34 -10 l 65 107 l 188 107 l 152 -24 q 146 -48 124 -65 q 101 -83 75 -83 l 47 -83 l 26 -15 l 69 -15 q 82 -15 83 -10 z"},"n":{"x_min":0,"x_max":635,"ha":635,"o":"m 156 -10 l 34 -10 l 128 342 q 148 416 216 469 q 283 522 360 522 l 555 522 q 632 522 671 469 q 696 434 696 389 q 696 367 690 342 l 596 -10 l 474 -10 l 568 342 q 570 351 570 359 q 570 375 562 387 q 548 405 523 405 l 328 405 q 304 405 281 387 q 257 369 250 342 z"},"h":{"x_min":0,"x_max":635,"ha":635,"o":"m 156 -10 l 34 -10 l 222 693 l 344 693 l 299 522 l 555 522 q 632 522 671 469 q 696 434 696 389 q 696 367 690 342 l 596 -10 l 474 -10 l 568 342 q 570 351 570 359 q 570 375 562 387 q 548 405 523 405 l 267 405 z"},"z":{"x_min":0,"x_max":635,"ha":635,"o":"m 301 107 l 627 107 l 596 -10 l 24 -10 l 471 405 l 145 405 l 177 522 l 749 522 z"},"B":{"x_min":0,"x_max":781,"ha":781,"o":"m 266 400 l 669 400 q 693 400 717 419 q 740 437 747 464 l 760 513 q 762 522 762 531 q 762 546 754 558 q 740 576 716 576 l 313 576 z m 234 283 l 188 107 l 590 107 q 615 107 638 126 q 661 144 668 171 l 682 220 q 684 229 684 237 q 684 253 675 265 q 662 283 637 283 z m 789 342 q 810 308 810 267 q 810 245 804 220 l 791 171 q 771 97 703 43 q 636 -10 559 -10 l 34 -10 l 222 693 l 747 693 q 824 693 863 640 q 889 605 889 561 q 889 538 882 513 l 869 464 q 850 394 789 342 z"},"K":{"x_min":0,"x_max":757,"ha":757,"o":"m 222 693 l 344 693 l 232 275 l 791 693 l 944 693 l 521 376 l 753 -10 l 614 -10 l 425 304 l 194 131 l 156 -10 l 34 -10 z"},"R":{"x_min":0,"x_max":781,"ha":781,"o":"m 253 352 l 656 352 q 680 352 703 370 q 727 388 734 415 l 760 513 q 762 522 762 531 q 762 546 754 558 q 740 576 716 576 l 313 576 z m 156 -10 l 34 -10 l 222 693 l 747 693 q 824 693 863 640 q 889 605 889 561 q 889 538 882 513 l 856 415 q 836 341 775 293 q 798 263 798 221 q 798 198 791 171 l 742 -10 l 620 -10 l 668 171 q 671 180 671 189 q 671 204 663 216 q 649 234 625 234 l 222 234 z"},"T":{"x_min":0,"x_max":781,"ha":781,"o":"m 930 693 l 899 576 l 606 576 l 449 -10 l 327 -10 l 484 576 l 191 576 l 222 693 z"},"P":{"x_min":0,"x_max":781,"ha":781,"o":"m 253 352 l 656 352 q 680 352 703 370 q 727 388 734 415 l 760 513 q 762 522 762 531 q 762 546 754 558 q 740 576 716 576 l 313 576 z m 222 693 l 747 693 q 824 693 863 640 q 889 605 889 561 q 889 538 882 513 l 856 415 q 836 341 769 288 q 701 234 625 234 l 222 234 l 156 -10 l 34 -10 z"},"|":{"x_min":0,"x_max":195,"ha":195,"o":"m 235 742 l 357 742 l 143 -59 l 21 -59 z"},"t":{"x_min":0,"x_max":439,"ha":439,"o":"m 543 522 l 511 405 l 267 405 l 205 171 q 202 162 202 153 q 202 138 211 126 q 224 108 249 107 l 432 107 l 400 -10 l 217 -9 q 141 -9 102 44 q 76 79 76 124 q 76 146 83 171 l 223 694 l 345 694 l 299 522 z"},"M":{"x_min":0,"x_max":830,"ha":830,"o":"m 331 -10 l 275 434 l 156 -10 l 34 -10 l 222 693 l 365 693 l 438 107 l 449 107 l 836 693 l 979 693 l 791 -10 l 669 -10 l 788 434 l 495 -10 z"},"g":{"x_min":0,"x_max":635,"ha":635,"o":"m 205 171 q 202 162 202 153 q 202 138 211 126 q 224 107 249 107 l 505 107 l 584 405 l 328 405 q 304 405 281 387 q 257 369 250 342 z m 474 -10 l 217 -10 q 141 -10 102 43 q 76 79 76 123 q 76 146 83 171 l 128 342 q 148 416 216 469 q 283 522 360 522 l 738 522 l 592 -24 q 572 -99 504 -152 q 437 -205 360 -205 l 79 -205 l 111 -88 l 392 -88 q 416 -88 439 -70 q 462 -51 470 -24 z"},"j":{"x_min":0,"x_max":195,"ha":195,"o":"m 177 522 l 299 522 l 152 -24 q 132 -99 65 -152 q -3 -205 -80 -205 l -116 -205 l -84 -88 l -48 -88 q -23 -88 0 -70 q 23 -51 30 -24 z m 222 693 l 344 693 l 313 576 l 191 576 z"},"i":{"x_min":0,"x_max":195,"ha":195,"o":"m 177 522 l 299 522 l 156 -10 l 34 -10 z m 344 693 l 313 576 l 191 576 l 222 693 z"},"y":{"x_min":0,"x_max":635,"ha":635,"o":"m 616 522 l 738 522 l 592 -24 q 572 -99 504 -152 q 437 -205 360 -205 l 79 -205 l 111 -88 l 392 -88 q 416 -88 439 -70 q 462 -51 470 -24 l 474 -10 l 217 -10 q 141 -10 102 43 q 76 79 76 123 q 76 146 83 171 l 177 522 l 299 522 l 205 171 q 202 162 202 153 q 202 138 211 126 q 224 107 249 107 l 505 107 z"},"@":{"x_min":0,"x_max":684,"ha":684,"o":"m 390 317 q 388 308 388 299 q 388 284 396 272 q 410 254 434 254 l 593 254 l 640 430 l 481 430 q 457 430 434 411 q 411 393 403 366 z m 679 576 l 374 576 q 350 576 326 558 q 303 540 296 513 l 205 171 q 202 162 202 153 q 202 138 211 126 q 224 107 249 107 l 627 107 l 596 -10 l 217 -10 q 141 -10 102 43 q 76 79 76 123 q 76 146 83 171 l 174 513 q 194 587 261 640 q 329 693 405 693 l 833 693 l 684 137 l 403 137 q 326 137 287 190 q 261 225 261 270 q 261 292 268 317 l 281 366 q 301 440 369 494 q 436 547 513 547 l 671 547 z"},".":{"x_min":0,"x_max":195,"ha":195,"o":"m 65 107 l 188 107 l 156 -10 l 34 -10 z"},"p":{"x_min":0,"x_max":635,"ha":635,"o":"m 568 342 q 570 351 570 359 q 570 375 562 387 q 548 405 523 405 l 267 405 l 188 107 l 444 107 q 468 107 491 126 q 515 144 522 171 z m 177 522 l 555 522 q 632 522 671 469 q 696 434 696 389 q 696 367 690 342 l 644 171 q 624 97 557 43 q 489 -10 413 -10 l 156 -10 l 110 -181 l -12 -181 z"},"X":{"x_min":0,"x_max":732,"ha":732,"o":"m 389 342 l 187 693 l 326 693 l 480 425 l 777 693 l 917 693 l 528 342 l 729 -10 l 589 -10 l 436 259 l 138 -10 l -1 -10 z"},"*":{"x_min":0,"x_max":513,"ha":513,"o":"m 484 619 l 612 657 l 618 545 l 489 507 l 536 406 l 419 335 l 373 435 l 274 335 l 196 406 l 296 507 l 188 545 l 254 657 l 362 619 l 395 742 l 517 742 z"},"Y":{"x_min":0,"x_max":732,"ha":732,"o":"m 394 332 l 392 336 l 187 693 l 326 693 l 480 425 l 777 693 l 917 693 l 522 336 l 516 332 l 425 -10 l 303 -10 z"},"c":{"x_min":0,"x_max":635,"ha":635,"o":"m 627 107 l 596 -10 l 217 -10 q 141 -10 102 43 q 76 79 76 123 q 76 146 83 171 l 128 342 q 148 416 216 469 q 283 522 360 522 l 739 522 l 707 405 l 328 405 q 304 405 281 387 q 257 369 250 342 l 205 171 q 202 162 202 153 q 202 138 211 126 q 224 107 249 107 z"},"!":{"x_min":0,"x_max":195,"ha":195,"o":"m 195 137 l 73 137 l 222 693 l 344 693 z m 34 -10 l 65 107 l 188 107 l 156 -10 z"},"/":{"x_min":0,"x_max":464,"ha":464,"o":"m 30 -10 l 494 693 l 617 693 l 153 -10 z"},"[":{"x_min":0,"x_max":488,"ha":488,"o":"m 467 59 l 436 -59 l 21 -59 l 235 742 l 650 742 l 619 625 l 326 625 l 174 59 z"},"6":{"x_min":0,"x_max":732,"ha":732,"o":"m 248 332 l 205 171 q 202 162 202 153 q 202 138 211 126 q 224 107 249 107 l 542 107 q 566 107 589 126 q 612 144 620 171 l 646 269 q 648 278 648 287 q 648 302 640 314 q 626 332 602 332 z m 279 449 l 633 449 q 710 449 749 396 q 774 361 774 316 q 774 294 768 269 l 742 171 q 722 97 654 43 q 587 -10 510 -10 l 217 -10 q 141 -10 102 43 q 76 79 76 123 q 76 146 83 171 l 174 513 q 194 587 261 640 q 329 693 405 693 l 833 693 l 801 576 l 374 576 q 350 576 326 558 q 303 540 296 513 z"},"r":{"x_min":0,"x_max":439,"ha":439,"o":"m 34 -10 l 128 342 q 148 416 216 469 q 283 522 360 522 l 543 522 l 511 405 l 328 405 q 304 405 281 387 q 257 369 250 342 l 156 -10 z"},"2":{"x_min":0,"x_max":732,"ha":732,"o":"m 295 283 q 271 283 248 265 q 225 247 218 220 l 188 107 l 725 107 l 693 -10 l 34 -10 l 96 220 q 115 294 183 347 q 250 400 327 400 l 620 400 q 645 400 668 419 q 691 437 698 464 l 711 513 q 713 522 713 531 q 713 546 705 558 q 691 576 667 576 l 191 576 l 222 693 l 698 693 q 775 693 814 640 q 840 605 840 561 q 840 538 833 513 l 820 464 q 800 390 733 336 q 665 283 588 283 z"},"{":{"x_min":0,"x_max":537,"ha":537,"o":"m 364 220 l 338 122 q 335 113 335 104 q 335 89 344 77 q 357 59 382 59 l 516 59 l 485 -59 l 351 -59 q 274 -59 235 -5 q 209 30 209 74 q 209 97 216 122 l 242 220 q 245 229 245 237 q 245 253 236 265 q 222 283 198 283 l 112 283 l 144 400 l 229 400 q 254 400 277 419 q 300 437 308 464 l 333 562 q 354 636 421 689 q 488 742 565 742 l 699 742 l 668 625 l 534 625 q 509 625 486 607 q 463 588 456 562 l 430 464 q 410 390 350 341 q 372 311 372 270 q 372 247 364 220 z"},"9":{"x_min":0,"x_max":732,"ha":732,"o":"m 668 352 l 711 513 q 713 522 713 531 q 713 546 705 558 q 691 576 667 576 l 374 576 q 350 576 326 558 q 303 540 296 513 l 270 415 q 268 406 268 397 q 268 382 276 370 q 290 352 314 352 z m 637 234 l 283 234 q 206 234 167 288 q 141 323 141 367 q 141 390 148 415 l 174 513 q 194 587 261 640 q 329 693 405 693 l 698 693 q 775 693 814 640 q 840 605 840 561 q 840 538 833 513 l 742 171 q 722 97 654 43 q 587 -10 510 -10 l 83 -10 l 114 107 l 542 107 q 566 107 589 126 q 612 144 620 171 z"}," ":{"x_min":0,"x_max":391,"ha":391,"o":""},"I":{"x_min":0,"x_max":195,"ha":195,"o":"m 222 693 l 344 693 l 156 -10 l 34 -10 z"},"H":{"x_min":0,"x_max":781,"ha":781,"o":"m 222 693 l 344 693 l 266 400 l 730 400 l 808 693 l 930 693 l 742 -10 l 620 -10 l 698 283 l 234 283 l 156 -10 l 34 -10 z"},"4":{"x_min":0,"x_max":732,"ha":732,"o":"m 653 205 l 751 205 l 719 88 l 622 88 l 596 -10 l 474 -10 l 500 88 l 54 88 l 519 693 l 667 693 l 293 205 l 531 205 l 570 352 l 692 352 z"},"~":{"x_min":0,"x_max":684,"ha":684,"o":"m 435 986 l 533 986 q 589 986 618 948 q 637 922 637 890 q 637 873 632 854 q 631 852 631 850 q 631 846 633 844 q 636 840 640 840 l 738 840 q 742 840 747 844 q 752 848 754 854 l 770 913 l 892 913 l 876 854 q 861 800 812 761 q 763 723 707 723 l 609 723 q 552 723 524 762 q 505 787 505 819 q 505 836 510 854 q 511 857 511 859 q 511 863 509 865 q 506 869 501 869 l 404 869 q 399 869 395 865 q 390 861 388 854 l 372 796 l 250 796 l 266 854 q 280 909 329 948 q 378 986 435 986 z"},"D":{"x_min":0,"x_max":781,"ha":781,"o":"m 188 107 l 590 107 q 615 107 638 126 q 661 144 668 171 l 760 513 q 762 522 762 531 q 762 546 754 558 q 740 576 716 576 l 313 576 z m 791 171 q 771 97 703 43 q 636 -10 559 -10 l 34 -10 l 222 693 l 747 693 q 824 693 863 640 q 889 605 889 561 q 889 538 882 513 z"},"^":{"x_min":0,"x_max":684,"ha":684,"o":"m 228 715 l 260 835 l 606 988 l 871 835 l 838 715 l 574 868 z"},"0":{"x_min":0,"x_max":732,"ha":732,"o":"m 205 171 q 202 162 202 153 q 202 138 211 126 q 224 107 249 107 l 542 107 q 566 107 589 126 q 612 144 620 171 l 711 513 q 713 522 713 531 q 713 546 705 558 q 691 576 667 576 l 374 576 q 350 576 326 558 q 303 540 296 513 z m 742 171 q 722 97 654 43 q 587 -10 510 -10 l 217 -10 q 141 -10 102 43 q 76 79 76 123 q 76 146 83 171 l 174 513 q 194 587 261 640 q 329 693 405 693 l 698 693 q 775 693 814 640 q 840 605 840 561 q 840 538 833 513 z"},"F":{"x_min":0,"x_max":781,"ha":781,"o":"m 234 283 l 156 -10 l 34 -10 l 174 513 q 194 587 261 640 q 329 693 405 693 l 930 693 l 899 576 l 374 576 q 350 576 326 558 q 303 540 296 513 l 266 400 l 754 400 l 723 283 z"},"`":{"x_min":0,"x_max":439,"ha":439,"o":"m 289 986 l 541 986 l 603 723 l 456 723 z"},"k":{"x_min":0,"x_max":610,"ha":610,"o":"m 222 693 l 344 693 l 232 272 l 236 275 l 599 522 l 754 522 l 381 268 l 610 -10 l 431 -10 l 279 198 l 197 143 l 156 -10 l 34 -10 z"},"u":{"x_min":0,"x_max":635,"ha":635,"o":"m 616 522 l 738 522 l 644 171 q 624 97 557 43 q 489 -10 413 -10 l 217 -10 q 141 -10 102 43 q 76 79 76 123 q 76 146 83 171 l 177 522 l 299 522 l 205 171 q 202 162 202 153 q 202 138 211 126 q 224 107 249 107 l 444 107 q 468 107 491 126 q 515 144 522 171 z"},"]":{"x_min":0,"x_max":488,"ha":488,"o":"m 345 59 l 497 625 l 204 625 l 235 742 l 650 742 l 436 -59 l 21 -59 l 52 59 z"},"U":{"x_min":0,"x_max":781,"ha":781,"o":"m 205 171 q 202 162 202 153 q 202 138 211 126 q 224 107 249 107 l 590 107 q 615 107 638 126 q 661 144 668 171 l 808 693 l 930 693 l 791 171 q 771 97 703 43 q 636 -10 559 -10 l 217 -10 q 141 -10 102 43 q 76 79 76 123 q 76 146 83 171 l 222 693 l 344 693 z"},"o":{"x_min":0,"x_max":635,"ha":635,"o":"m 205 171 q 202 162 202 153 q 202 138 211 126 q 224 107 249 107 l 444 107 q 468 107 491 126 q 515 144 522 171 l 568 342 q 570 351 570 359 q 570 375 562 387 q 548 405 523 405 l 328 405 q 304 405 281 387 q 257 369 250 342 z m 644 171 q 624 97 557 43 q 489 -10 413 -10 l 217 -10 q 141 -10 102 43 q 76 79 76 123 q 76 146 83 171 l 128 342 q 148 416 216 469 q 283 522 360 522 l 555 522 q 632 522 671 469 q 696 434 696 389 q 696 367 690 342 z"},"N":{"x_min":0,"x_max":781,"ha":781,"o":"m 302 536 l 156 -10 l 34 -10 l 222 693 l 351 693 l 662 148 l 808 693 l 930 693 l 742 -10 l 614 -10 z"},"+":{"x_min":0,"x_max":635,"ha":635,"o":"m 332 283 l 112 283 l 144 400 l 364 400 l 416 596 l 538 596 l 486 400 l 706 400 l 674 283 l 454 283 l 402 88 l 280 88 z"},"G":{"x_min":0,"x_max":781,"ha":781,"o":"m 852 400 l 791 171 q 771 97 703 43 q 636 -10 559 -10 l 217 -10 q 141 -10 102 43 q 76 79 76 123 q 76 146 83 171 l 174 513 q 194 587 261 640 q 329 693 405 693 l 930 693 l 899 576 l 374 576 q 350 576 326 558 q 303 540 296 513 l 205 171 q 202 162 202 153 q 202 138 211 126 q 224 107 249 107 l 590 107 q 615 107 638 126 q 661 144 668 171 l 698 283 l 454 283 l 486 400 z"},"q":{"x_min":0,"x_max":635,"ha":635,"o":"m 205 171 q 202 162 202 153 q 202 138 211 126 q 224 107 249 107 l 505 107 l 584 405 l 328 405 q 304 405 281 387 q 257 369 250 342 z m 550 -181 l 428 -181 l 474 -10 l 217 -10 q 141 -10 102 43 q 76 79 76 123 q 76 146 83 171 l 128 342 q 148 416 216 469 q 283 522 360 522 l 738 522 z"},"d":{"x_min":0,"x_max":635,"ha":635,"o":"m 205 171 q 202 162 202 153 q 202 138 211 126 q 224 107 249 107 l 505 107 l 584 405 l 328 405 q 304 405 281 387 q 257 369 250 342 z m 596 -10 l 217 -10 q 141 -10 102 43 q 76 79 76 123 q 76 146 83 171 l 128 342 q 148 416 216 469 q 283 522 360 522 l 616 522 l 662 693 l 784 693 z"},"1":{"x_min":0,"x_max":195,"ha":195,"o":"m 222 693 l 344 693 l 156 -10 l 34 -10 z"},"5":{"x_min":0,"x_max":732,"ha":732,"o":"m 125 332 l 222 693 l 833 693 l 801 576 l 313 576 l 279 449 l 633 449 q 710 449 749 396 q 774 361 774 316 q 774 294 768 269 l 742 171 q 722 97 654 43 q 587 -10 510 -10 l 34 -10 l 65 107 l 542 107 q 566 107 589 126 q 612 144 620 171 l 646 269 q 648 278 648 287 q 648 302 640 314 q 626 332 602 332 z"}}}
